# xmcd CD database file
#
# Track frame offsets:
#	150
#	16070
#	34581
#	50069
#	63437
#	78341
#	95202
#	111332
#	126844
#	140608
#	156539
#	171643
#	188170
#	204243
#	227133
#	241640
#	258127
#	271107
#	294253
#
# Disc length: 4179 seconds
#
# Revision: 2
# Processed by: cddbd v1.5.2PL0 Copyright (c) Steve Scherf et al.
# Submitted via: jetAudio 5
#
DISCID=0c105113
DTITLE=João Bosco e Vinícius - Acústico - João Bosco e Vinícius - Acúst
DTITLE=ico
DYEAR=0
DGENRE=
TTITLE0=Querendo te Encontrar
TTITLE1=Pout Pourri - Meu ex-Amor, Deixa Eu Chorar
TTITLE2=Não Dá Pra Continuar
TTITLE3=Só Fazendo Amor
TTITLE4=Não é Mais Como Antes
TTITLE5=Vou Doar Meu Coração
TTITLE6=Coração Idiota
TTITLE7=Sofrendo por Amor
TTITLE8=O Fora
TTITLE9=Vem me Amar
TTITLE10=Parece Castigo
TTITLE11=Mania de me Enganar
TTITLE12=Quero um Beijo
TTITLE13=Pout Pourri - Preciso Amar de Novo, Desejos
TTITLE14=Ah é?
TTITLE15=Chora Peito, Chora
TTITLE16=Tô falando, tá Teimando
TTITLE17=Faz de Conta que Eu Sou Ele
TTITLE18=Quero Provar que Te Amo
EXTD=
EXTT0=
EXTT1=
EXTT2=
EXTT3=
EXTT4=
EXTT5=
EXTT6=
EXTT7=
EXTT8=
EXTT9=
EXTT10=
EXTT11=
EXTT12=
EXTT13=
EXTT14=
EXTT15=
EXTT16=
EXTT17=
EXTT18=
PLAYORDER=
